<?xml version="1.0" encoding="UTF-8" standalone="no"?>
<svg
   xmlns:dc="http://purl.org/dc/elements/1.1/"
   xmlns:cc="http://creativecommons.org/ns#"
   xmlns:rdf="http://www.w3.org/1999/02/22-rdf-syntax-ns#"
   xmlns:svg="http://www.w3.org/2000/svg"
   xmlns="http://www.w3.org/2000/svg"
   xmlns:sodipodi="http://sodipodi.sourceforge.net/DTD/sodipodi-0.dtd"
   xmlns:inkscape="http://www.inkscape.org/namespaces/inkscape"
   width="2000"
   height="2000"
   viewBox="0 0 261.62494 261.6"
   preserveAspectRatio="xMinYMin meet"
   version="1.1"
   id="svg8"
   sodipodi:docname="infopi.svg"
   inkscape:version="0.92.4 (5da689c313, 2019-01-14)">
  <metadata
     id="metadata14">
    <rdf:RDF>
      <cc:Work
         rdf:about="">
        <dc:format>image/svg+xml</dc:format>
        <dc:type
           rdf:resource="http://purl.org/dc/dcmitype/StillImage" />
        <dc:title></dc:title>
      </cc:Work>
    </rdf:RDF>
  </metadata>
  <defs
     id="defs12" />
  <sodipodi:namedview
     pagecolor="#ffffff"
     bordercolor="#666666"
     borderopacity="1"
     objecttolerance="10"
     gridtolerance="10"
     guidetolerance="10"
     inkscape:pageopacity="0"
     inkscape:pageshadow="2"
     inkscape:window-width="640"
     inkscape:window-height="480"
     id="namedview10"
     showgrid="false"
     showguides="true"
     inkscape:guide-bbox="true"
     inkscape:snap-others="false"
     inkscape:object-nodes="false"
     fit-margin-top="100"
     fit-margin-left="100"
     fit-margin-right="100"
     fit-margin-bottom="100"
     inkscape:zoom="0.27549396"
     inkscape:cx="2801.1913"
     inkscape:cy="1831.288"
     inkscape:current-layer="svg8" />
  <g
     id="g874"
     transform="translate(-0.99208054,-0.33062704)">
    <circle
       r="9.4431"
       cy="111.38268"
       cx="131.80455"
       id="path867"
       style="opacity:1;fill:#030401;fill-opacity:1;stroke:none;stroke-width:0.13081247;stroke-miterlimit:4;stroke-dasharray:none;stroke-dashoffset:0;stroke-opacity:0.94901961" />
    <g
       transform="translate(3.8045476,-66.951154)"
       id="g859">
      <path
         inkscape:connector-curvature="0"
         style="stroke-width:7.64453125"
         d="m 978.49805,616.86523 c -30.0148,0 -54.33789,24.32306 -54.33789,54.33789 v 40.6211 C 597.04547,728.33708 316.47079,892.90833 172.10938,1128.5273 l -3.44141,6.1348 c -0.15053,0.092 -0.30067,0.1873 -0.45117,0.2793 -53.59929,89.4906 -87.647387,189.018 -97.300784,294.4375 44.110084,-31.6594 111.031584,-51.8691 185.980464,-51.8691 116.63621,0 213.81865,48.913 235.80664,113.8144 h 9.66993 c 22.54714,-64.4795 119.43963,-112.9668 235.5625,-112.9668 308.95765,-20.5886 190.28295,-21.6786 481.04105,-0.8476 116.6361,0 213.8186,48.913 235.8066,113.8144 h 9.6719 c 22.5438,-64.4795 119.4344,-112.9668 235.5605,-112.9668 74.9946,0 141.9584,20.2322 186.0684,51.9375 -9.5453,-105.809 -43.6568,-205.7 -97.4512,-295.4804 -0.098,-0.06 -0.1967,-0.122 -0.2949,-0.1817 l -2.2832,-4.0664 C 1642.077,893.86781 1360.8593,728.40457 1032.8359,711.82422 v -40.6211 c 0,-30.01483 -24.323,-54.33789 -54.33785,-54.33789 z"
         transform="scale(0.13081247)"
         id="path2" />
      <path
         sodipodi:nodetypes="ccccccccccccccccccccccccscccccccscccccscccsccsccccccsccc"
         inkscape:connector-curvature="0"
         style="fill:#bc1142;stroke-width:7.64453125"
         d="m 983.97461,702.16602 c -20.25912,-0.0302 -40.34535,2.38583 -59.81445,6.69531 v 2.96289 c -5.18207,0.26159 -10.34751,0.5726 -15.50586,0.9082 -97.1599,26.88926 -175.23759,99.07704 -175.47852,145.05274 -0.35929,70.89538 103.5366,143.48774 257.82617,145.33004 157.55375,1.1238 258.09505,-58.10564 258.59965,-131.27145 0.4457,-63.60373 -84.1503,-130.19444 -176.0352,-157.17187 -13.492,-1.20133 -27.0696,-2.15715 -40.7305,-2.84766 v -6.33594 c -14.4426,-2.25417 -28.7856,-3.39928 -42.72848,-3.24609 v 0.008 c -2.0461,-0.0533 -4.08974,-0.0809 -6.13281,-0.084 z M 668.9043,756.75977 C 521.98694,802.31012 392.66343,879.35475 292,978.39648 c -8.76746,33.62962 -12.90284,70.57612 -11.66406,110.56642 7.21643,91.2069 475.44443,-317.64419 394.60351,-331.22852 -2.01498,-0.34027 -4.02651,-0.66254 -6.03515,-0.97461 z m 634.168,4.79687 c -7.2625,0.8676 -14.571,1.91509 -21.9219,3.15625 -80.8333,13.58433 387.3871,422.43721 394.6035,331.22261 1.3712,-44.2679 -3.8366,-84.8092 -14.6309,-121.24409 -96.6325,-93.88108 -219.1745,-167.66819 -358.0507,-213.13477 z m -31.1778,250.79686 c -42.9747,0.4801 -84.8472,12.1919 -121.6484,36.3008 -97.7204,64.0261 -128.9554,195.3657 -84.418,317.3965 34.485,2.5069 81.2437,6.3074 153.1485,11.459 116.6361,0 213.8186,48.913 235.8066,113.8144 h 9.6719 c 14.1496,-40.4706 57.5914,-74.6366 116.6914,-94.4726 14.3905,-75.3369 -2.0201,-161.5394 -51.877,-236.9844 -62.9517,-95.2633 -162.8307,-148.5698 -257.375,-147.5137 z m -561.12106,13.9668 c -94.54234,-1.0556 -194.42385,52.251 -257.38086,147.5195 -48.69991,73.6964 -65.4933,157.6636 -52.83008,231.7383 46.69392,20.5347 80.3086,50.8218 92.14062,85.7461 h 9.66993 c 22.54714,-64.4795 119.43963,-112.9668 235.5625,-112.9668 80.18769,-5.3436 131.26656,-9.3408 168.3989,-12.0066 0.40866,9.0032 2.70233,17.8706 3.74035,20.1695 5.77034,-6.7247 9.86262,-15.7127 11.77481,-21.2586 36.91735,-117.7231 4.36458,-241.1822 -89.43359,-302.6406 -36.79887,-24.1089 -78.66879,-35.821 -121.64258,-36.3008 z m 991.03906,153.9649 c -46.8798,0.7763 -59.0872,95.4817 -49.9805,200.9179 15.5676,-1.8652 31.681,-2.8457 48.1836,-2.8457 63.4993,0 121.2364,14.5081 164.2227,38.2012 -7.2616,-88.4237 -51.6774,-178.0006 -151.1172,-234.7832 -3.9735,-1.0647 -7.7421,-1.5493 -11.3086,-1.4902 z m -1446.62695,6.9785 c -3.56608,-0.059 -7.33364,0.4272 -11.30664,1.4922 -96.32756,55.0089 -141.02153,140.7815 -150.326176,226.4687 42.891436,-23.4023 100.273576,-37.7148 163.343746,-37.7148 16.75522,0 33.10553,1.0143 48.89258,2.9355 7.85537,-102.2864 -4.8773,-192.4277 -50.60351,-193.1816 z"
         transform="scale(0.13081247)"
         id="path6" />
    </g>
    <path
       sodipodi:nodetypes="cccsccccccc"
       style="font-style:italic;font-variant:normal;font-weight:normal;font-stretch:normal;font-size:251.85760498px;line-height:125%;font-family:'Bitstream Charter';-inkscape-font-specification:'Bitstream Charter Italic';letter-spacing:0px;word-spacing:0px;fill:#030401;fill-opacity:1;stroke:none;stroke-width:0.13081247px;stroke-linecap:butt;stroke-linejoin:miter;stroke-opacity:1"
       d="m 122.13033,122.64316 0.0734,99.08916 c 0.0932,5.63095 0.48398,10.17552 1.0738,13.13968 2.16266,10.86867 8.43133,15.27082 19.05295,13.15729 9.38659,-1.86778 20.65346,-7.19124 33.1088,-15.57592 l -1.5237,-7.65748 c -7.16594,3.99388 -12.84855,6.40859 -17.54184,7.34246 -7.65746,1.52371 -12.49567,-0.8519 -13.77363,-7.2743 -0.2949,-1.48208 -0.4411,-3.50734 -0.48774,-6.32282 l -0.5977,-95.89807 z"
       id="path841"
       inkscape:connector-curvature="0" />
  </g>
</svg>
