<svg xmlns="http://www.w3.org/2000/svg" width="2000" height="2000" viewBox="0 0 261.625 261.6" preserveAspectRatio="xMinYMin meet"><circle style="opacity:1;fill:#030401;fill-opacity:1;stroke:none;stroke-width:.13081247;stroke-miterlimit:4;stroke-dasharray:none;stroke-dashoffset:0;stroke-opacity:.94901961" cx="130.812" cy="111.052" r="9.443"/><path transform="translate(2.812 -67.282) scale(.13081)" d="M978.498 616.865c-30.015 0-54.338 24.323-54.338 54.338v40.621c-327.115 16.513-607.69 181.084-752.05 416.703l-3.442 6.135-.451.28c-53.6 89.49-87.648 189.017-97.301 294.437 44.11-31.66 111.032-51.87 185.98-51.87 116.637 0 213.82 48.914 235.807 113.815h9.67c22.547-64.48 119.44-112.967 235.563-112.967 308.957-20.588 190.282-21.678 481.04-.847 116.637 0 213.82 48.913 235.807 113.814h9.672c22.544-64.48 119.434-112.967 235.56-112.967 74.995 0 141.959 20.233 186.069 51.938-9.545-105.81-43.657-205.7-97.451-295.48-.098-.06-.197-.123-.295-.182l-2.283-4.067c-143.978-236.698-425.196-402.161-753.22-418.742v-40.62c0-30.016-24.322-54.339-54.337-54.339z" style="stroke-width:7.64453125"/><path transform="translate(2.812 -67.282) scale(.13081)" d="M983.975 702.166c-20.26-.03-40.346 2.386-59.815 6.695v2.963c-5.182.262-10.347.573-15.506.908-97.16 26.89-175.237 99.077-175.478 145.053-.36 70.896 103.536 143.488 257.826 145.33 157.554 1.124 258.095-58.105 258.6-131.271.445-63.604-84.15-130.195-176.036-157.172a1065.955 1065.955 0 0 0-40.73-2.848v-6.336c-14.443-2.254-28.786-3.399-42.729-3.246v.008a250.03 250.03 0 0 0-6.132-.084zm-315.07 54.594C521.986 802.31 392.662 879.355 292 978.396c-8.767 33.63-12.903 70.577-11.664 110.567 7.216 91.207 475.444-317.644 394.603-331.229-2.015-.34-4.026-.662-6.035-.974zm634.167 4.797a457.877 457.877 0 0 0-21.922 3.156c-80.833 13.584 387.387 422.437 394.604 331.223 1.371-44.268-3.837-84.81-14.631-121.245-96.633-93.88-219.175-167.668-358.05-213.134zm-31.177 250.797c-42.975.48-84.848 12.191-121.649 36.3-97.72 64.026-128.955 195.366-84.418 317.397 34.485 2.507 81.244 6.307 153.149 11.459 116.636 0 213.818 48.913 235.806 113.814h9.672c14.15-40.47 57.592-74.636 116.692-94.472 14.39-75.337-2.02-161.54-51.877-236.985-62.952-95.263-162.831-148.57-257.375-147.513zm-561.122 13.966c-94.542-1.055-194.423 52.251-257.38 147.52-48.7 73.696-65.494 157.663-52.83 231.738 46.693 20.535 80.308 50.822 92.14 85.746h9.67c22.547-64.48 119.44-112.967 235.563-112.967 80.187-5.343 131.266-9.34 168.398-12.006.41 9.003 2.703 17.87 3.74 20.17 5.771-6.725 9.863-15.713 11.776-21.26 36.917-117.722 4.364-241.181-89.434-302.64-36.799-24.109-78.669-35.82-121.643-36.3zm991.04 153.965c-46.88.776-59.088 95.482-49.981 200.918 15.568-1.865 31.681-2.846 48.184-2.846 63.499 0 121.236 14.508 164.222 38.202-7.261-88.424-51.677-178.001-151.117-234.784-3.973-1.064-7.742-1.549-11.308-1.49zm-1446.627 6.979c-3.567-.06-7.334.427-11.307 1.492-96.328 55.009-141.022 140.781-150.326 226.469 42.891-23.403 100.273-37.715 163.343-37.715 16.756 0 33.106 1.014 48.893 2.935 7.855-102.286-4.877-192.427-50.603-193.181z" style="fill:#bc1142;stroke-width:7.64453125"/><path style="font-style:italic;font-variant:normal;font-weight:400;font-stretch:normal;font-size:251.85760498px;line-height:125%;font-family:'Bitstream Charter',serif;letter-spacing:0;word-spacing:0;fill:#030401;fill-opacity:1;stroke:none;stroke-width:1px;stroke-linecap:butt;stroke-linejoin:miter;stroke-opacity:1" d="m926.166 1098.209.44 594.303c.712 43.046 3.7 77.787 8.208 100.447 16.533 83.086 64.454 116.739 145.65 100.582 71.757-14.278 157.887-54.975 253.102-119.072l-11.646-58.537c-54.78 30.531-98.222 48.99-134.1 56.129-58.537 11.648-95.523-6.512-105.293-55.608-2.254-11.33-3.372-26.813-3.728-48.336l-3.553-569.908h-149.08z" transform="scale(.13081)"/></svg>
